<?xml version="1.0" encoding="UTF-8" standalone="no"?>
<!DOCTYPE svg PUBLIC "-//W3C//DTD SVG 1.1//EN"
 "http://www.w3.org/Graphics/SVG/1.1/DTD/svg11.dtd">
<!-- Generated by graphviz version 2.43.0 (0)
 -->
<!-- Title: G Pages: 1 -->
<svg width="442pt" height="261pt"
 viewBox="0.00 0.00 441.98 261.00" xmlns="http://www.w3.org/2000/svg" xmlns:xlink="http://www.w3.org/1999/xlink">
<g id="graph0" class="graph" transform="scale(1 1) rotate(0) translate(4 257)">
<title>G</title>
<polygon fill="white" stroke="transparent" points="-4,4 -4,-257 437.98,-257 437.98,4 -4,4"/>
<g id="clust1" class="cluster">
<title>cluster_1</title>
<polygon fill="lightgrey" stroke="lightgrey" points="8,-8 8,-245 81.19,-245 81.19,-8 8,-8"/>
<text text-anchor="middle" x="44.6" y="-229.8" font-family="Times,serif" font-size="14.00">Layer 0</text>
</g>
<g id="clust2" class="cluster">
<title>cluster_2</title>
<polygon fill="lightgrey" stroke="lightgrey" points="101.19,-8 101.19,-245 189.99,-245 189.99,-8 101.19,-8"/>
<text text-anchor="middle" x="145.59" y="-229.8" font-family="Times,serif" font-size="14.00">Layer 1: relu</text>
</g>
<g id="clust3" class="cluster">
<title>cluster_3</title>
<polygon fill="lightgrey" stroke="lightgrey" points="209.99,-8 209.99,-245 303.98,-245 303.98,-8 209.99,-8"/>
<text text-anchor="middle" x="256.99" y="-229.8" font-family="Times,serif" font-size="14.00">Layer 2: relu</text>
</g>
<g id="clust4" class="cluster">
<title>cluster_4</title>
<polygon fill="lightgrey" stroke="lightgrey" points="323.98,-35 323.98,-218 433.98,-218 433.98,-35 323.98,-35"/>
<text text-anchor="middle" x="378.98" y="-202.8" font-family="Times,serif" font-size="14.00">Layer 3: softmax</text>
</g>
<!-- x1 -->
<g id="node1" class="node">
<title>x1</title>
<ellipse fill="none" stroke="black" cx="44.6" cy="-196" rx="27" ry="18"/>
<text text-anchor="middle" x="44.6" y="-192.3" font-family="Times,serif" font-size="14.00">x1</text>
</g>
<!-- node1 -->
<g id="node5" class="node">
<title>node1</title>
<ellipse fill="none" stroke="black" cx="145.59" cy="-196" rx="32.49" ry="18"/>
<text text-anchor="middle" x="145.59" y="-192.3" font-family="Times,serif" font-size="14.00">node1</text>
</g>
<!-- x1&#45;&gt;node1 -->
<g id="edge1" class="edge">
<title>x1&#45;&gt;node1</title>
<path fill="none" stroke="black" d="M71.61,-196C81.06,-196 92,-196 102.49,-196"/>
<polygon fill="black" stroke="black" points="102.75,-199.5 112.75,-196 102.75,-192.5 102.75,-199.5"/>
</g>
<!-- node2 -->
<g id="node6" class="node">
<title>node2</title>
<ellipse fill="none" stroke="black" cx="145.59" cy="-142" rx="32.49" ry="18"/>
<text text-anchor="middle" x="145.59" y="-138.3" font-family="Times,serif" font-size="14.00">node2</text>
</g>
<!-- x1&#45;&gt;node2 -->
<g id="edge5" class="edge">
<title>x1&#45;&gt;node2</title>
<path fill="none" stroke="black" d="M66.11,-184.81C79.52,-177.49 97.32,-167.79 112.58,-159.46"/>
<polygon fill="black" stroke="black" points="114.58,-162.36 121.68,-154.5 111.23,-156.21 114.58,-162.36"/>
</g>
<!-- ... -->
<g id="node7" class="node">
<title>...</title>
<ellipse fill="none" stroke="black" cx="145.59" cy="-88" rx="27" ry="18"/>
<text text-anchor="middle" x="145.59" y="-84.3" font-family="Times,serif" font-size="14.00">...</text>
</g>
<!-- x1&#45;&gt;... -->
<g id="edge9" class="edge">
<title>x1&#45;&gt;...</title>
<path fill="none" stroke="black" d="M59.78,-180.53C76.56,-162.22 104.65,-131.58 123.86,-110.61"/>
<polygon fill="black" stroke="black" points="126.58,-112.83 130.75,-103.1 121.42,-108.1 126.58,-112.83"/>
</g>
<!-- node20 -->
<g id="node8" class="node">
<title>node20</title>
<ellipse fill="none" stroke="black" cx="145.59" cy="-34" rx="36.29" ry="18"/>
<text text-anchor="middle" x="145.59" y="-30.3" font-family="Times,serif" font-size="14.00">node20</text>
</g>
<!-- x1&#45;&gt;node20 -->
<g id="edge13" class="edge">
<title>x1&#45;&gt;node20</title>
<path fill="none" stroke="black" d="M55.82,-179.27C73.07,-151.05 108.08,-93.75 128.6,-60.17"/>
<polygon fill="black" stroke="black" points="131.75,-61.73 133.98,-51.37 125.78,-58.08 131.75,-61.73"/>
</g>
<!-- x2 -->
<g id="node2" class="node">
<title>x2</title>
<ellipse fill="none" stroke="black" cx="44.6" cy="-142" rx="27" ry="18"/>
<text text-anchor="middle" x="44.6" y="-138.3" font-family="Times,serif" font-size="14.00">x2</text>
</g>
<!-- x2&#45;&gt;node1 -->
<g id="edge2" class="edge">
<title>x2&#45;&gt;node1</title>
<path fill="none" stroke="black" d="M66.11,-153.19C79.52,-160.51 97.32,-170.21 112.58,-178.54"/>
<polygon fill="black" stroke="black" points="111.23,-181.79 121.68,-183.5 114.58,-175.64 111.23,-181.79"/>
</g>
<!-- x2&#45;&gt;node2 -->
<g id="edge6" class="edge">
<title>x2&#45;&gt;node2</title>
<path fill="none" stroke="black" d="M71.61,-142C81.06,-142 92,-142 102.49,-142"/>
<polygon fill="black" stroke="black" points="102.75,-145.5 112.75,-142 102.75,-138.5 102.75,-145.5"/>
</g>
<!-- x2&#45;&gt;... -->
<g id="edge10" class="edge">
<title>x2&#45;&gt;...</title>
<path fill="none" stroke="black" d="M66.11,-130.81C80.31,-123.06 99.43,-112.64 115.24,-104.01"/>
<polygon fill="black" stroke="black" points="117,-107.04 124.11,-99.17 113.65,-100.89 117,-107.04"/>
</g>
<!-- x2&#45;&gt;node20 -->
<g id="edge14" class="edge">
<title>x2&#45;&gt;node20</title>
<path fill="none" stroke="black" d="M59.78,-126.53C76.18,-108.63 103.38,-78.96 122.55,-58.05"/>
<polygon fill="black" stroke="black" points="125.28,-60.24 129.46,-50.51 120.12,-55.51 125.28,-60.24"/>
</g>
<!-- .. -->
<g id="node3" class="node">
<title>..</title>
<ellipse fill="none" stroke="black" cx="44.6" cy="-88" rx="27" ry="18"/>
<text text-anchor="middle" x="44.6" y="-84.3" font-family="Times,serif" font-size="14.00">..</text>
</g>
<!-- ..&#45;&gt;node1 -->
<g id="edge3" class="edge">
<title>..&#45;&gt;node1</title>
<path fill="none" stroke="black" d="M59.78,-103.47C76.28,-121.47 103.7,-151.38 122.88,-172.31"/>
<polygon fill="black" stroke="black" points="120.45,-174.84 129.79,-179.85 125.61,-170.11 120.45,-174.84"/>
</g>
<!-- ..&#45;&gt;node2 -->
<g id="edge7" class="edge">
<title>..&#45;&gt;node2</title>
<path fill="none" stroke="black" d="M66.11,-99.19C79.52,-106.51 97.32,-116.21 112.58,-124.54"/>
<polygon fill="black" stroke="black" points="111.23,-127.79 121.68,-129.5 114.58,-121.64 111.23,-127.79"/>
</g>
<!-- ..&#45;&gt;... -->
<g id="edge11" class="edge">
<title>..&#45;&gt;...</title>
<path fill="none" stroke="black" d="M71.61,-88C82.77,-88 96.01,-88 108.13,-88"/>
<polygon fill="black" stroke="black" points="108.41,-91.5 118.41,-88 108.41,-84.5 108.41,-91.5"/>
</g>
<!-- ..&#45;&gt;node20 -->
<g id="edge15" class="edge">
<title>..&#45;&gt;node20</title>
<path fill="none" stroke="black" d="M66.11,-76.81C79.15,-69.7 96.33,-60.33 111.29,-52.17"/>
<polygon fill="black" stroke="black" points="113.16,-55.13 120.26,-47.27 109.81,-48.99 113.16,-55.13"/>
</g>
<!-- x784 -->
<g id="node4" class="node">
<title>x784</title>
<ellipse fill="none" stroke="black" cx="44.6" cy="-34" rx="28.7" ry="18"/>
<text text-anchor="middle" x="44.6" y="-30.3" font-family="Times,serif" font-size="14.00">x784</text>
</g>
<!-- x784&#45;&gt;node1 -->
<g id="edge4" class="edge">
<title>x784&#45;&gt;node1</title>
<path fill="none" stroke="black" d="M55.82,-50.73C73.16,-79.1 108.44,-136.85 128.92,-170.36"/>
<polygon fill="black" stroke="black" points="126.08,-172.41 134.28,-179.12 132.05,-168.76 126.08,-172.41"/>
</g>
<!-- x784&#45;&gt;node2 -->
<g id="edge8" class="edge">
<title>x784&#45;&gt;node2</title>
<path fill="none" stroke="black" d="M59.78,-49.47C76.28,-67.47 103.7,-97.38 122.88,-118.31"/>
<polygon fill="black" stroke="black" points="120.45,-120.84 129.79,-125.85 125.61,-116.11 120.45,-120.84"/>
</g>
<!-- x784&#45;&gt;... -->
<g id="edge12" class="edge">
<title>x784&#45;&gt;...</title>
<path fill="none" stroke="black" d="M67.08,-45.72C81.11,-53.37 99.62,-63.47 115.04,-71.88"/>
<polygon fill="black" stroke="black" points="113.71,-75.14 124.17,-76.86 117.07,-69 113.71,-75.14"/>
</g>
<!-- x784&#45;&gt;node20 -->
<g id="edge16" class="edge">
<title>x784&#45;&gt;node20</title>
<path fill="none" stroke="black" d="M73.44,-34C81.41,-34 90.32,-34 99.06,-34"/>
<polygon fill="black" stroke="black" points="99.18,-37.5 109.18,-34 99.18,-30.5 99.18,-37.5"/>
</g>
<!-- node1  -->
<g id="node9" class="node">
<title>node1 </title>
<ellipse fill="none" stroke="black" cx="256.99" cy="-196" rx="34.39" ry="18"/>
<text text-anchor="middle" x="256.99" y="-192.3" font-family="Times,serif" font-size="14.00">node1 </text>
</g>
<!-- node1&#45;&gt;node1  -->
<g id="edge17" class="edge">
<title>node1&#45;&gt;node1 </title>
<path fill="none" stroke="black" d="M178.23,-196C188.86,-196 200.91,-196 212.3,-196"/>
<polygon fill="black" stroke="black" points="212.51,-199.5 222.51,-196 212.51,-192.5 212.51,-199.5"/>
</g>
<!-- node2  -->
<g id="node10" class="node">
<title>node2 </title>
<ellipse fill="none" stroke="black" cx="256.99" cy="-142" rx="34.39" ry="18"/>
<text text-anchor="middle" x="256.99" y="-138.3" font-family="Times,serif" font-size="14.00">node2 </text>
</g>
<!-- node1&#45;&gt;node2  -->
<g id="edge21" class="edge">
<title>node1&#45;&gt;node2 </title>
<path fill="none" stroke="black" d="M170.33,-184.28C185.35,-176.87 205.02,-167.16 221.72,-158.91"/>
<polygon fill="black" stroke="black" points="223.74,-161.82 231.16,-154.26 220.64,-155.54 223.74,-161.82"/>
</g>
<!-- ...  -->
<g id="node11" class="node">
<title>... </title>
<ellipse fill="none" stroke="black" cx="256.99" cy="-88" rx="27" ry="18"/>
<text text-anchor="middle" x="256.99" y="-84.3" font-family="Times,serif" font-size="14.00">... </text>
</g>
<!-- node1&#45;&gt;...  -->
<g id="edge25" class="edge">
<title>node1&#45;&gt;... </title>
<path fill="none" stroke="black" d="M162.27,-180.53C181,-162.03 212.47,-130.96 233.72,-109.98"/>
<polygon fill="black" stroke="black" points="236.39,-112.27 241.04,-102.75 231.47,-107.29 236.39,-112.27"/>
</g>
<!-- node30  -->
<g id="node12" class="node">
<title>node30 </title>
<ellipse fill="none" stroke="black" cx="256.99" cy="-34" rx="38.99" ry="18"/>
<text text-anchor="middle" x="256.99" y="-30.3" font-family="Times,serif" font-size="14.00">node30 </text>
</g>
<!-- node1&#45;&gt;node30  -->
<g id="edge29" class="edge">
<title>node1&#45;&gt;node30 </title>
<path fill="none" stroke="black" d="M157.89,-179.27C177.03,-150.93 215.97,-93.26 238.6,-59.74"/>
<polygon fill="black" stroke="black" points="241.56,-61.61 244.26,-51.37 235.76,-57.7 241.56,-61.61"/>
</g>
<!-- node2&#45;&gt;node1  -->
<g id="edge18" class="edge">
<title>node2&#45;&gt;node1 </title>
<path fill="none" stroke="black" d="M170.33,-153.72C185.35,-161.13 205.02,-170.84 221.72,-179.09"/>
<polygon fill="black" stroke="black" points="220.64,-182.46 231.16,-183.74 223.74,-176.18 220.64,-182.46"/>
</g>
<!-- node2&#45;&gt;node2  -->
<g id="edge22" class="edge">
<title>node2&#45;&gt;node2 </title>
<path fill="none" stroke="black" d="M178.23,-142C188.86,-142 200.91,-142 212.3,-142"/>
<polygon fill="black" stroke="black" points="212.51,-145.5 222.51,-142 212.51,-138.5 212.51,-145.5"/>
</g>
<!-- node2&#45;&gt;...  -->
<g id="edge26" class="edge">
<title>node2&#45;&gt;... </title>
<path fill="none" stroke="black" d="M170.33,-130.28C186.55,-122.27 208.2,-111.59 225.67,-102.97"/>
<polygon fill="black" stroke="black" points="227.47,-105.98 234.88,-98.42 224.37,-99.7 227.47,-105.98"/>
</g>
<!-- node2&#45;&gt;node30  -->
<g id="edge30" class="edge">
<title>node2&#45;&gt;node30 </title>
<path fill="none" stroke="black" d="M162.27,-126.53C180.58,-108.45 211.06,-78.35 232.27,-57.41"/>
<polygon fill="black" stroke="black" points="234.97,-59.67 239.63,-50.15 230.05,-54.69 234.97,-59.67"/>
</g>
<!-- ...&#45;&gt;node1  -->
<g id="edge19" class="edge">
<title>...&#45;&gt;node1 </title>
<path fill="none" stroke="black" d="M161.8,-103.02C180.18,-121.16 211.3,-151.89 232.71,-173.02"/>
<polygon fill="black" stroke="black" points="230.26,-175.52 239.84,-180.06 235.18,-170.54 230.26,-175.52"/>
</g>
<!-- ...&#45;&gt;node2  -->
<g id="edge23" class="edge">
<title>...&#45;&gt;node2 </title>
<path fill="none" stroke="black" d="M167.68,-98.41C182.98,-105.96 204,-116.34 221.7,-125.07"/>
<polygon fill="black" stroke="black" points="220.61,-128.44 231.13,-129.73 223.71,-122.16 220.61,-128.44"/>
</g>
<!-- ...&#45;&gt;...  -->
<g id="edge27" class="edge">
<title>...&#45;&gt;... </title>
<path fill="none" stroke="black" d="M172.79,-88C186.76,-88 204.17,-88 219.45,-88"/>
<polygon fill="black" stroke="black" points="219.62,-91.5 229.62,-88 219.62,-84.5 219.62,-91.5"/>
</g>
<!-- ...&#45;&gt;node30  -->
<g id="edge31" class="edge">
<title>...&#45;&gt;node30 </title>
<path fill="none" stroke="black" d="M167.68,-77.59C182.56,-70.24 202.85,-60.23 220.24,-51.65"/>
<polygon fill="black" stroke="black" points="222.12,-54.62 229.54,-47.05 219.02,-48.34 222.12,-54.62"/>
</g>
<!-- node20&#45;&gt;node1  -->
<g id="edge20" class="edge">
<title>node20&#45;&gt;node1 </title>
<path fill="none" stroke="black" d="M158.09,-51.03C177.33,-79.52 216.13,-136.98 238.68,-170.37"/>
<polygon fill="black" stroke="black" points="235.81,-172.38 244.31,-178.71 241.61,-168.46 235.81,-172.38"/>
</g>
<!-- node20&#45;&gt;node2  -->
<g id="edge24" class="edge">
<title>node20&#45;&gt;node2 </title>
<path fill="none" stroke="black" d="M162.73,-49.94C181.15,-68.12 211.44,-98.03 232.48,-118.8"/>
<polygon fill="black" stroke="black" points="230.2,-121.46 239.78,-126 235.12,-116.48 230.2,-121.46"/>
</g>
<!-- node20&#45;&gt;...  -->
<g id="edge28" class="edge">
<title>node20&#45;&gt;... </title>
<path fill="none" stroke="black" d="M171.96,-46.52C187.9,-54.39 208.55,-64.58 225.39,-72.9"/>
<polygon fill="black" stroke="black" points="224.28,-76.25 234.8,-77.54 227.38,-69.98 224.28,-76.25"/>
</g>
<!-- node20&#45;&gt;node30  -->
<g id="edge32" class="edge">
<title>node20&#45;&gt;node30 </title>
<path fill="none" stroke="black" d="M182.11,-34C190.18,-34 198.89,-34 207.4,-34"/>
<polygon fill="black" stroke="black" points="207.63,-37.5 217.63,-34 207.63,-30.5 207.63,-37.5"/>
</g>
<!-- y10 -->
<g id="node13" class="node">
<title>y10</title>
<ellipse fill="none" stroke="black" cx="378.98" cy="-61" rx="27" ry="18"/>
<text text-anchor="middle" x="378.98" y="-57.3" font-family="Times,serif" font-size="14.00">y10</text>
</g>
<!-- node1 &#45;&gt;y10 -->
<g id="edge33" class="edge">
<title>node1 &#45;&gt;y10</title>
<path fill="none" stroke="black" d="M272.46,-179.72C293.68,-155.84 333.32,-111.24 357.52,-84.02"/>
<polygon fill="black" stroke="black" points="360.17,-86.31 364.2,-76.51 354.94,-81.66 360.17,-86.31"/>
</g>
<!-- y1 -->
<g id="node14" class="node">
<title>y1</title>
<ellipse fill="none" stroke="black" cx="378.98" cy="-169" rx="27" ry="18"/>
<text text-anchor="middle" x="378.98" y="-165.3" font-family="Times,serif" font-size="14.00">y1</text>
</g>
<!-- node1 &#45;&gt;y1 -->
<g id="edge37" class="edge">
<title>node1 &#45;&gt;y1</title>
<path fill="none" stroke="black" d="M288.89,-189.05C305.45,-185.32 325.91,-180.72 343.05,-176.86"/>
<polygon fill="black" stroke="black" points="344.24,-180.18 353.23,-174.57 342.7,-173.35 344.24,-180.18"/>
</g>
<!-- . -->
<g id="node15" class="node">
<title>.</title>
<ellipse fill="none" stroke="black" cx="378.98" cy="-115" rx="27" ry="18"/>
<text text-anchor="middle" x="378.98" y="-111.3" font-family="Times,serif" font-size="14.00">.</text>
</g>
<!-- node1 &#45;&gt;. -->
<g id="edge41" class="edge">
<title>node1 &#45;&gt;.</title>
<path fill="none" stroke="black" d="M278.89,-181.89C298.83,-168.43 328.99,-148.07 350.8,-133.35"/>
<polygon fill="black" stroke="black" points="352.96,-136.11 359.29,-127.62 349.04,-130.31 352.96,-136.11"/>
</g>
<!-- node2 &#45;&gt;y10 -->
<g id="edge34" class="edge">
<title>node2 &#45;&gt;y10</title>
<path fill="none" stroke="black" d="M278.89,-127.89C298.83,-114.43 328.99,-94.07 350.8,-79.35"/>
<polygon fill="black" stroke="black" points="352.96,-82.11 359.29,-73.62 349.04,-76.31 352.96,-82.11"/>
</g>
<!-- node2 &#45;&gt;y1 -->
<g id="edge38" class="edge">
<title>node2 &#45;&gt;y1</title>
<path fill="none" stroke="black" d="M288.89,-148.95C305.45,-152.68 325.91,-157.28 343.05,-161.14"/>
<polygon fill="black" stroke="black" points="342.7,-164.65 353.23,-163.43 344.24,-157.82 342.7,-164.65"/>
</g>
<!-- node2 &#45;&gt;. -->
<g id="edge42" class="edge">
<title>node2 &#45;&gt;.</title>
<path fill="none" stroke="black" d="M288.89,-135.05C305.45,-131.32 325.91,-126.72 343.05,-122.86"/>
<polygon fill="black" stroke="black" points="344.24,-126.18 353.23,-120.57 342.7,-119.35 344.24,-126.18"/>
</g>
<!-- ... &#45;&gt;y10 -->
<g id="edge35" class="edge">
<title>... &#45;&gt;y10</title>
<path fill="none" stroke="black" d="M282.85,-82.41C300.31,-78.48 323.89,-73.17 343.21,-68.82"/>
<polygon fill="black" stroke="black" points="344.16,-72.2 353.15,-66.59 342.63,-65.37 344.16,-72.2"/>
</g>
<!-- ... &#45;&gt;y1 -->
<g id="edge39" class="edge">
<title>... &#45;&gt;y1</title>
<path fill="none" stroke="black" d="M276.47,-100.48C296.32,-113.88 328.06,-135.3 350.76,-150.63"/>
<polygon fill="black" stroke="black" points="349.03,-153.68 359.28,-156.37 352.95,-147.88 349.03,-153.68"/>
</g>
<!-- ... &#45;&gt;. -->
<g id="edge43" class="edge">
<title>... &#45;&gt;.</title>
<path fill="none" stroke="black" d="M282.85,-93.59C300.31,-97.52 323.89,-102.83 343.21,-107.18"/>
<polygon fill="black" stroke="black" points="342.63,-110.63 353.15,-109.41 344.16,-103.8 342.63,-110.63"/>
</g>
<!-- node30 &#45;&gt;y10 -->
<g id="edge36" class="edge">
<title>node30 &#45;&gt;y10</title>
<path fill="none" stroke="black" d="M292.37,-41.74C308.28,-45.32 327.14,-49.56 343.11,-53.15"/>
<polygon fill="black" stroke="black" points="342.6,-56.63 353.12,-55.41 344.13,-49.8 342.6,-56.63"/>
</g>
<!-- node30 &#45;&gt;y1 -->
<g id="edge40" class="edge">
<title>node30 &#45;&gt;y1</title>
<path fill="none" stroke="black" d="M272.7,-50.55C294,-74.52 333.52,-118.97 357.61,-146.08"/>
<polygon fill="black" stroke="black" points="355,-148.41 364.26,-153.56 360.23,-143.76 355,-148.41"/>
</g>
<!-- node30 &#45;&gt;. -->
<g id="edge44" class="edge">
<title>node30 &#45;&gt;.</title>
<path fill="none" stroke="black" d="M279.72,-48.67C299.66,-62.13 329.29,-82.13 350.79,-96.65"/>
<polygon fill="black" stroke="black" points="348.93,-99.61 359.17,-102.3 352.84,-93.81 348.93,-99.61"/>
</g>
</g>
</svg>
